<svg width="27" height="19" viewBox="0 0 27 19" fill="none" xmlns="http://www.w3.org/2000/svg">
<circle cx="9.17155" cy="9.49967" r="8.50358" fill="url(#paint0_linear_102_909)"/>
<ellipse cx="10.461" cy="5.89686" rx="0.80887" ry="0.804846" transform="rotate(3 10.461 5.89686)" fill="white"/>
<ellipse cx="5.4883" cy="5.63612" rx="0.80887" ry="0.804846" transform="rotate(3 5.4883 5.63612)" fill="white"/>
<ellipse cx="7.76564" cy="14.2387" rx="0.80887" ry="0.804846" transform="rotate(3 7.76564 14.2387)" fill="white"/>
<ellipse cx="12.8242" cy="14.5043" rx="0.80887" ry="0.804846" transform="rotate(3 12.8242 14.5043)" fill="white"/>
<path d="M4.27486 8.01156L4.18729 9.6825L6.66084 9.66367L6.74398 8.07734C6.7457 7.77343 6.5115 7.14467 5.56096 7.06092C4.61043 6.97717 4.3075 7.65978 4.27486 8.01156Z" fill="white"/>
<path d="M9.04896 11.5959L9.16155 9.61511L6.66128 9.64917L6.55439 11.5296C6.54828 11.8898 6.77592 12.6339 7.7354 12.7286C8.69489 12.8234 9.01089 12.0129 9.04896 11.5959Z" fill="white"/>
<path d="M14.0826 11.7463L14.2056 9.58266L11.6439 9.6295L11.5272 11.6836C11.5195 12.077 11.7499 12.8887 12.7325 12.9885C13.7151 13.0883 14.042 12.202 14.0826 11.7463Z" fill="white"/>
<path d="M9.25404 8.12134L9.15794 9.64686L11.6558 9.66824L11.7471 8.21997C11.7502 7.94229 11.5166 7.36408 10.5571 7.27272C9.59765 7.18136 9.28862 7.8004 9.25404 8.12134Z" fill="white"/>
<defs>
<linearGradient id="paint0_linear_102_909" x1="0.667969" y1="9.49967" x2="17.6751" y2="9.49967" gradientUnits="userSpaceOnUse">
<stop stop-color="#B4EBFF"/>
<stop offset="0.9999" stop-color="#C8BBFF"/>
<stop offset="1" stop-color="#D9D9D9" stop-opacity="0"/>
</linearGradient>
</defs>
</svg>
