<svg width="25" height="24" viewBox="0 0 25 24" fill="none" xmlns="http://www.w3.org/2000/svg">
<circle cx="12.5" cy="12" r="12" fill="url(#paint0_linear_104_1096)"/>
<path fill-rule="evenodd" clip-rule="evenodd" d="M3.07995 8.43211C3.07995 8.87786 2.71678 9.23922 2.2688 9.23922C1.82082 9.23922 1.45766 8.87786 1.45766 8.43211C1.45766 7.98635 1.82082 7.625 2.2688 7.625C2.71678 7.625 3.07995 7.98635 3.07995 8.43211ZM7.26272 9.23922C7.7107 9.23922 8.07386 8.87786 8.07386 8.43211C8.07386 7.98635 7.7107 7.625 7.26272 7.625C6.81474 7.625 6.45158 7.98635 6.45158 8.43211C6.45158 8.87786 6.81474 9.23922 7.26272 9.23922ZM13.069 8.43211C13.069 8.87786 12.7058 9.23922 12.2578 9.23922C11.8098 9.23922 11.4467 8.87786 11.4467 8.43211C11.4467 7.98635 11.8098 7.625 12.2578 7.625C12.7058 7.625 13.069 7.98635 13.069 8.43211ZM17.4235 9.23922C17.8715 9.23922 18.2347 8.87786 18.2347 8.43211C18.2347 7.98635 17.8715 7.625 17.4235 7.625C16.9756 7.625 16.6124 7.98635 16.6124 8.43211C16.6124 8.87786 16.9756 9.23922 17.4235 9.23922ZM22.4186 9.23922C22.8666 9.23922 23.2298 8.87786 23.2298 8.43211C23.2298 7.98635 22.8666 7.625 22.4186 7.625C21.9707 7.625 21.6075 7.98635 21.6075 8.43211C21.6075 8.87786 21.9707 9.23922 22.4186 9.23922ZM5.00078 17.7352C5.44876 17.7352 5.81193 17.3738 5.81193 16.9281C5.81193 16.4823 5.44876 16.121 5.00078 16.121C4.5528 16.121 4.18964 16.4823 4.18964 16.9281C4.18964 17.3738 4.5528 17.7352 5.00078 17.7352ZM10.8917 16.9281C10.8917 17.3738 10.5286 17.7352 10.0806 17.7352C9.63261 17.7352 9.26945 17.3738 9.26945 16.9281C9.26945 16.4823 9.63261 16.121 10.0806 16.121C10.5286 16.121 10.8917 16.4823 10.8917 16.9281ZM15.0328 17.7352C15.4807 17.7352 15.8439 17.3738 15.8439 16.9281C15.8439 16.4823 15.4807 16.121 15.0328 16.121C14.5848 16.121 14.2216 16.4823 14.2216 16.9281C14.2216 17.3738 14.5848 17.7352 15.0328 17.7352ZM20.9249 16.9281C20.9249 17.3738 20.5617 17.7352 20.1138 17.7352C19.6658 17.7352 19.3026 17.3738 19.3026 16.9281C19.3026 16.4823 19.6658 16.121 20.1138 16.121C20.5617 16.121 20.9249 16.4823 20.9249 16.9281ZM1.17969 12.5528V10.8748C1.19392 10.5208 1.46145 9.82134 2.41775 9.85532C3.37405 9.88931 3.64158 10.5067 3.65581 10.8111V12.3993L3.65586 12.3893L6.1539 12.2242L6.16973 10.7239C6.18752 10.4007 6.4645 9.76452 7.43015 9.80565C8.39579 9.84679 8.66008 10.4136 8.67152 10.6918L8.65659 12.1071L11.1914 11.9278V10.8969C11.2056 10.5429 11.4731 9.84341 12.4294 9.87739C13.3857 9.91138 13.6533 10.5287 13.6675 10.8332V11.8224L16.1853 11.6304V10.8969C16.1995 10.5429 16.4671 9.84341 17.4234 9.87739C18.3797 9.91138 18.6472 10.5287 18.6614 10.8332V11.509L21.1804 11.2913V10.9276C21.1956 10.5778 21.4816 9.88675 22.5039 9.92033C23.5261 9.9539 23.8121 10.5638 23.8273 10.8646V11.1723L22.5039 11.2572L21.2001 11.32L21.1887 13.916C21.1715 14.4701 20.8898 15.5638 19.9006 15.5063C18.9113 15.4487 18.6388 14.4812 18.6262 14.0046L18.637 11.555L17.4234 11.5966L16.203 11.6385L16.1928 13.9617C16.1759 14.4538 15.8947 15.425 14.9055 15.3735C13.9162 15.3219 13.6432 14.4624 13.6303 14.0391L13.64 11.8524L12.4294 11.894L11.2067 11.9569L11.1972 14.0999C11.1805 14.5583 10.8996 15.4631 9.91036 15.4147C8.92106 15.3664 8.64778 14.5656 8.6348 14.1712L8.64374 12.1475L6.15778 12.2564L6.14913 14.2134C6.1329 14.6331 5.85898 15.4613 4.89314 15.4168C3.9273 15.3723 3.66028 14.6391 3.64751 14.278L3.65579 12.4041L1.17969 12.5528Z" fill="white"/>
<defs>
<linearGradient id="paint0_linear_104_1096" x1="0.5" y1="12" x2="24.5" y2="12" gradientUnits="userSpaceOnUse">
<stop stop-color="#B4EBFF"/>
<stop offset="0.9999" stop-color="#C8BBFF"/>
<stop offset="1" stop-color="#D9D9D9" stop-opacity="0"/>
</linearGradient>
</defs>
</svg>
