<svg width="204" height="156" viewBox="0 0 204 156" fill="none" xmlns="http://www.w3.org/2000/svg">
<path d="M54.579 2V5.7895" stroke="#623D22" stroke-width="3.7895" stroke-linecap="round" stroke-linejoin="round"/>
<path d="M54.579 13.3687V17.1581" stroke="#623D22" stroke-width="3.7895" stroke-linecap="round" stroke-linejoin="round"/>
<path d="M47 9.5791H50.7895" stroke="#623D22" stroke-width="3.7895" stroke-linecap="round" stroke-linejoin="round"/>
<path d="M58.3684 9.5791H62.1579" stroke="#623D22" stroke-width="3.7895" stroke-linecap="round" stroke-linejoin="round"/>
<path d="M56.6293 35.4743C56.6301 35.8751 56.5119 36.2671 56.2898 36.6007C56.0677 36.9342 55.7516 37.1945 55.3816 37.3483C55.0116 37.5022 54.6042 37.5429 54.211 37.4651C53.8179 37.3874 53.4566 37.1948 53.173 36.9117C52.8893 36.6286 52.696 36.2677 52.6176 35.8747C52.5391 35.4817 52.579 35.0742 52.7322 34.7039C52.8854 34.3335 53.145 34.017 53.4782 33.7943C53.8113 33.5715 54.2031 33.4526 54.6039 33.4526C55.1402 33.4531 55.6546 33.6662 56.0342 34.0451C56.4138 34.424 56.6278 34.938 56.6293 35.4743Z" fill="#623D22"/>
<path d="M136.053 41.7897C143.378 41.7897 149.316 35.8515 149.316 28.5264C149.316 21.2013 143.378 15.2632 136.053 15.2632C128.728 15.2632 122.79 21.2013 122.79 28.5264C122.79 35.8515 128.728 41.7897 136.053 41.7897Z" stroke="#623D22" stroke-width="3.7895" stroke-linecap="round" stroke-linejoin="round"/>
<path d="M84.895 41.7897C92.22 41.7897 98.1582 35.8515 98.1582 28.5264C98.1582 21.2013 92.22 15.2632 84.895 15.2632C77.5699 15.2632 71.6317 21.2013 71.6317 28.5264C71.6317 35.8515 77.5699 41.7897 84.895 41.7897Z" stroke="#623D22" stroke-width="3.7895" stroke-linecap="round" stroke-linejoin="round"/>
<path d="M103.138 53.7017C100.942 49.3395 97.3356 45.848 92.9047 43.7945C88.4738 41.741 83.4787 41.2462 78.7311 42.3905C73.9834 43.5349 69.7623 46.2511 66.7535 50.0977C63.7447 53.9444 62.1251 58.6955 62.158 63.579V75.8949C62.158 84.9402 65.7512 93.615 72.1472 100.011C78.5432 106.407 87.2181 110 96.2634 110H122.79C131.835 110 140.51 106.407 146.906 100.011C153.302 93.615 156.895 84.9402 156.895 75.8949V63.579C156.927 58.6006 155.242 53.7635 152.125 49.8818C149.007 46.0001 144.648 43.311 139.78 42.2671C134.912 41.2232 129.833 41.8883 125.398 44.1504C120.964 46.4125 117.443 50.1335 115.431 54.6869" stroke="#623D22" stroke-width="3.7895" stroke-linecap="round" stroke-linejoin="round"/>
<path d="M119.444 54.3916C116.043 54.4165 112.791 55.7848 110.395 58.1982C107.998 55.7843 104.745 54.416 101.344 54.3916C93.8479 54.3916 87.7695 61.046 87.7695 69.2559C87.7695 77.4658 103.608 91.5514 110.395 96.5062C117.182 91.5514 133.022 77.464 133.022 69.2635C133.022 61.063 126.942 54.3916 119.444 54.3916Z" stroke="#623D22" stroke-width="3.7895" stroke-linecap="round" stroke-linejoin="round"/>
<path d="M0.264 150L6.864 132.984H11.016L17.544 150H13.056L8.136 135.696H9.696L4.656 150H0.264ZM4.272 147.024V143.616H13.656V147.024H4.272ZM19.137 150V132.984H22.137L23.433 136.464V150H19.137ZM30.873 150L20.937 137.376L22.137 132.984L32.097 145.608L30.873 150ZM30.873 150L29.769 146.424V132.984H34.065V150H30.873ZM45.3461 150.264C44.0501 150.264 42.8501 150.048 41.7461 149.616C40.6421 149.168 39.6741 148.552 38.8421 147.768C38.0261 146.968 37.3861 146.032 36.9221 144.96C36.4741 143.888 36.2501 142.728 36.2501 141.48C36.2501 140.216 36.4741 139.056 36.9221 138C37.3861 136.928 38.0261 136 38.8421 135.216C39.6741 134.432 40.6341 133.816 41.7221 133.368C42.8261 132.92 44.0181 132.696 45.2981 132.696C46.6421 132.696 47.8501 132.912 48.9221 133.344C49.9941 133.76 50.9381 134.344 51.7541 135.096L48.8741 137.976C48.4741 137.528 47.9781 137.176 47.3861 136.92C46.7941 136.664 46.0981 136.536 45.2981 136.536C44.6101 136.536 43.9781 136.648 43.4021 136.872C42.8421 137.096 42.3541 137.432 41.9381 137.88C41.5221 138.312 41.1941 138.832 40.9541 139.44C40.7301 140.048 40.6181 140.728 40.6181 141.48C40.6181 142.232 40.7301 142.912 40.9541 143.52C41.1941 144.128 41.5221 144.656 41.9381 145.104C42.3541 145.536 42.8421 145.872 43.4021 146.112C43.9781 146.336 44.6101 146.448 45.2981 146.448C46.0981 146.448 46.8021 146.328 47.4101 146.088C48.0181 145.832 48.5381 145.472 48.9701 145.008L51.8501 147.888C51.0181 148.64 50.0741 149.224 49.0181 149.64C47.9781 150.056 46.7541 150.264 45.3461 150.264ZM53.7073 150V132.984H58.0033V150H53.7073ZM57.1153 150V146.376H66.3313V150H57.1153ZM57.1153 143.088V139.56H65.4673V143.088H57.1153ZM57.1153 136.608V132.984H66.1873V136.608H57.1153ZM73.6603 150.264C72.2363 150.264 70.9963 150.048 69.9403 149.616C68.9003 149.184 67.9483 148.504 67.0843 147.576L69.7963 144.84C70.3883 145.464 71.0203 145.944 71.6923 146.28C72.3643 146.6 73.1243 146.76 73.9723 146.76C74.6923 146.76 75.2443 146.64 75.6283 146.4C76.0283 146.144 76.2283 145.8 76.2283 145.368C76.2283 144.968 76.0843 144.64 75.7963 144.384C75.5083 144.112 75.1243 143.88 74.6443 143.688C74.1803 143.48 73.6603 143.288 73.0843 143.112C72.5243 142.92 71.9563 142.696 71.3803 142.44C70.8203 142.168 70.3003 141.84 69.8203 141.456C69.3563 141.072 68.9803 140.592 68.6923 140.016C68.4043 139.44 68.2603 138.728 68.2603 137.88C68.2603 136.792 68.5163 135.864 69.0283 135.096C69.5563 134.328 70.2843 133.736 71.2123 133.32C72.1403 132.904 73.2203 132.696 74.4523 132.696C75.6843 132.696 76.8203 132.904 77.8603 133.32C78.9003 133.736 79.7563 134.312 80.4283 135.048L77.6923 137.76C77.1803 137.248 76.6603 136.864 76.1323 136.608C75.6043 136.352 75.0283 136.224 74.4043 136.224C73.8123 136.224 73.3483 136.328 73.0123 136.536C72.6763 136.744 72.5083 137.04 72.5083 137.424C72.5083 137.808 72.6523 138.12 72.9403 138.36C73.2283 138.6 73.6043 138.816 74.0683 139.008C74.5483 139.184 75.0683 139.368 75.6283 139.56C76.2043 139.752 76.7723 139.976 77.3323 140.232C77.8923 140.488 78.4043 140.816 78.8683 141.216C79.3483 141.616 79.7323 142.12 80.0203 142.728C80.3083 143.336 80.4523 144.072 80.4523 144.936C80.4523 146.632 79.8523 147.944 78.6523 148.872C77.4683 149.8 75.8043 150.264 73.6603 150.264ZM86.1713 150V133.104H90.4673V150H86.1713ZM80.9633 136.68V132.984H95.6753V136.68H80.9633ZM101.037 143.112V140.04H104.277C104.981 140.04 105.517 139.872 105.885 139.536C106.269 139.184 106.461 138.712 106.461 138.12C106.461 137.544 106.269 137.08 105.885 136.728C105.517 136.36 104.981 136.176 104.277 136.176H101.037V132.984H104.877C106.029 132.984 107.037 133.2 107.901 133.632C108.781 134.064 109.469 134.656 109.965 135.408C110.461 136.16 110.709 137.04 110.709 138.048C110.709 139.056 110.453 139.944 109.941 140.712C109.445 141.464 108.749 142.056 107.853 142.488C106.957 142.904 105.909 143.112 104.709 143.112H101.037ZM97.6292 150V132.984H101.925V150H97.6292ZM106.845 150L101.901 142.704L105.765 141.768L111.813 150H106.845ZM111.428 150L118.028 132.984H122.18L128.708 150H124.22L119.3 135.696H120.86L115.82 150H111.428ZM115.436 147.024V143.616H124.82V147.024H115.436ZM130.301 150V132.984H134.597V150H130.301ZM133.709 150V146.304H141.917V150H133.709ZM143.918 150V132.984H148.214V150H143.918ZM154.135 150V146.304H158.215C159.175 146.304 160.007 146.12 160.711 145.752C161.431 145.384 161.983 144.84 162.367 144.12C162.751 143.384 162.943 142.496 162.943 141.456C162.943 140.432 162.743 139.568 162.343 138.864C161.959 138.144 161.415 137.6 160.711 137.232C160.007 136.864 159.175 136.68 158.215 136.68H153.943V132.984H158.239C159.551 132.984 160.759 133.192 161.863 133.608C162.967 134.008 163.927 134.584 164.743 135.336C165.559 136.088 166.191 136.984 166.639 138.024C167.103 139.064 167.335 140.216 167.335 141.48C167.335 142.76 167.103 143.92 166.639 144.96C166.191 146 165.559 146.896 164.743 147.648C163.927 148.4 162.967 148.984 161.863 149.4C160.775 149.8 159.583 150 158.287 150H154.135ZM151.231 150V132.984H155.527V150H151.231ZM168.241 150L174.841 132.984H178.993L185.521 150H181.033L176.113 135.696H177.673L172.633 150H168.241ZM172.249 147.024V143.616H181.633V147.024H172.249ZM190.018 150V146.304H194.098C195.058 146.304 195.89 146.12 196.594 145.752C197.314 145.384 197.866 144.84 198.25 144.12C198.634 143.384 198.826 142.496 198.826 141.456C198.826 140.432 198.626 139.568 198.226 138.864C197.842 138.144 197.298 137.6 196.594 137.232C195.89 136.864 195.058 136.68 194.098 136.68H189.826V132.984H194.122C195.434 132.984 196.642 133.192 197.746 133.608C198.85 134.008 199.81 134.584 200.626 135.336C201.442 136.088 202.074 136.984 202.522 138.024C202.986 139.064 203.218 140.216 203.218 141.48C203.218 142.76 202.986 143.92 202.522 144.96C202.074 146 201.442 146.896 200.626 147.648C199.81 148.4 198.85 148.984 197.746 149.4C196.658 149.8 195.466 150 194.17 150H190.018ZM187.114 150V132.984H191.41V150H187.114Z" fill="#623D22"/>
</svg>
