<svg width="114" height="112" viewBox="0 0 114 112" fill="none" xmlns="http://www.w3.org/2000/svg">
<path d="M9.5791 2V5.7895" stroke="#623D22" stroke-width="3.7895" stroke-linecap="round" stroke-linejoin="round"/>
<path d="M9.5791 13.3687V17.1581" stroke="#623D22" stroke-width="3.7895" stroke-linecap="round" stroke-linejoin="round"/>
<path d="M2 9.5791H5.7895" stroke="#623D22" stroke-width="3.7895" stroke-linecap="round" stroke-linejoin="round"/>
<path d="M13.3684 9.5791H17.1579" stroke="#623D22" stroke-width="3.7895" stroke-linecap="round" stroke-linejoin="round"/>
<path d="M11.6293 35.4743C11.6301 35.8751 11.5119 36.2671 11.2898 36.6007C11.0677 36.9342 10.7516 37.1945 10.3816 37.3483C10.0116 37.5022 9.60418 37.5429 9.21103 37.4651C8.81787 37.3874 8.45661 37.1948 8.17296 36.9117C7.88931 36.6286 7.69603 36.2677 7.61757 35.8747C7.53911 35.4817 7.579 35.0742 7.73219 34.7039C7.88538 34.3335 8.14499 34.017 8.47816 33.7943C8.81133 33.5715 9.20309 33.4526 9.60385 33.4526C10.1402 33.4531 10.6546 33.6662 11.0342 34.0451C11.4138 34.424 11.6278 34.938 11.6293 35.4743Z" fill="#623D22"/>
<path d="M91.053 41.7897C98.3781 41.7897 104.316 35.8515 104.316 28.5264C104.316 21.2013 98.3781 15.2632 91.053 15.2632C83.7279 15.2632 77.7898 21.2013 77.7898 28.5264C77.7898 35.8515 83.7279 41.7897 91.053 41.7897Z" stroke="#623D22" stroke-width="3.7895" stroke-linecap="round" stroke-linejoin="round"/>
<path d="M39.8951 41.7897C47.2202 41.7897 53.1583 35.8515 53.1583 28.5264C53.1583 21.2013 47.2202 15.2632 39.8951 15.2632C32.57 15.2632 26.6318 21.2013 26.6318 28.5264C26.6318 35.8515 32.57 41.7897 39.8951 41.7897Z" stroke="#623D22" stroke-width="3.7895" stroke-linecap="round" stroke-linejoin="round"/>
<path d="M58.1376 53.7014C55.9419 49.3392 52.3356 45.8477 47.9047 43.7942C43.4738 41.7408 38.4787 41.246 33.7311 42.3903C28.9834 43.5346 24.7623 46.2508 21.7535 50.0975C18.7447 53.9442 17.1251 58.6952 17.158 63.5787V75.8946C17.158 84.9399 20.7512 93.6148 27.1472 100.011C33.5432 106.407 42.2181 110 51.2634 110H77.7899C86.8352 110 95.5101 106.407 101.906 100.011C108.302 93.6148 111.895 84.9399 111.895 75.8946V63.5787C111.927 58.6004 110.242 53.7632 107.125 49.8815C104.007 45.9999 99.6477 43.3108 94.7799 42.2669C89.9121 41.223 84.8333 41.8881 80.3984 44.1502C75.9635 46.4123 72.4435 50.1332 70.4307 54.6867" stroke="#623D22" stroke-width="3.7895" stroke-linecap="round" stroke-linejoin="round"/>
<path d="M74.444 54.3916C71.0435 54.4165 67.7906 55.7848 65.3947 58.1982C62.9984 55.7843 59.7448 54.416 56.3435 54.3916C48.8479 54.3916 42.7695 61.046 42.7695 69.2559C42.7695 77.4658 58.6077 91.5514 65.3947 96.5062C72.1817 91.5514 88.0218 77.464 88.0218 69.2635C88.0218 61.063 81.9416 54.3916 74.444 54.3916Z" stroke="#623D22" stroke-width="3.7895" stroke-linecap="round" stroke-linejoin="round"/>
</svg>
