<svg width="159" height="161" viewBox="0 0 159 161" fill="none" xmlns="http://www.w3.org/2000/svg">
<path d="M0.264 155L6.864 137.984H11.016L17.544 155H13.056L8.136 140.696H9.696L4.656 155H0.264ZM4.272 152.024V148.616H13.656V152.024H4.272ZM24.1838 155.264C22.7598 155.264 21.5198 155.048 20.4638 154.616C19.4238 154.184 18.4718 153.504 17.6078 152.576L20.3198 149.84C20.9118 150.464 21.5438 150.944 22.2158 151.28C22.8878 151.6 23.6478 151.76 24.4958 151.76C25.2158 151.76 25.7678 151.64 26.1518 151.4C26.5518 151.144 26.7518 150.8 26.7518 150.368C26.7518 149.968 26.6078 149.64 26.3198 149.384C26.0318 149.112 25.6478 148.88 25.1678 148.688C24.7038 148.48 24.1838 148.288 23.6078 148.112C23.0478 147.92 22.4798 147.696 21.9038 147.44C21.3438 147.168 20.8238 146.84 20.3438 146.456C19.8798 146.072 19.5038 145.592 19.2158 145.016C18.9278 144.44 18.7838 143.728 18.7838 142.88C18.7838 141.792 19.0398 140.864 19.5518 140.096C20.0798 139.328 20.8078 138.736 21.7358 138.32C22.6638 137.904 23.7438 137.696 24.9758 137.696C26.2078 137.696 27.3438 137.904 28.3838 138.32C29.4238 138.736 30.2798 139.312 30.9518 140.048L28.2158 142.76C27.7038 142.248 27.1838 141.864 26.6558 141.608C26.1278 141.352 25.5518 141.224 24.9278 141.224C24.3358 141.224 23.8718 141.328 23.5358 141.536C23.1998 141.744 23.0318 142.04 23.0318 142.424C23.0318 142.808 23.1758 143.12 23.4638 143.36C23.7518 143.6 24.1278 143.816 24.5918 144.008C25.0718 144.184 25.5918 144.368 26.1518 144.56C26.7278 144.752 27.2958 144.976 27.8558 145.232C28.4158 145.488 28.9278 145.816 29.3918 146.216C29.8718 146.616 30.2558 147.12 30.5438 147.728C30.8318 148.336 30.9758 149.072 30.9758 149.936C30.9758 151.632 30.3758 152.944 29.1758 153.872C27.9918 154.8 26.3278 155.264 24.1838 155.264ZM36.6947 155V138.104H40.9907V155H36.6947ZM31.4867 141.68V137.984H46.1987V141.68H31.4867ZM51.5606 148.112V145.04H54.8006C55.5046 145.04 56.0406 144.872 56.4086 144.536C56.7926 144.184 56.9846 143.712 56.9846 143.12C56.9846 142.544 56.7926 142.08 56.4086 141.728C56.0406 141.36 55.5046 141.176 54.8006 141.176H51.5606V137.984H55.4006C56.5526 137.984 57.5606 138.2 58.4246 138.632C59.3046 139.064 59.9926 139.656 60.4886 140.408C60.9846 141.16 61.2326 142.04 61.2326 143.048C61.2326 144.056 60.9766 144.944 60.4646 145.712C59.9686 146.464 59.2726 147.056 58.3766 147.488C57.4806 147.904 56.4326 148.112 55.2326 148.112H51.5606ZM48.1526 155V137.984H52.4486V155H48.1526ZM57.3686 155L52.4246 147.704L56.2886 146.768L62.3366 155H57.3686ZM71.9951 155.312C70.6831 155.312 69.4751 155.088 68.3711 154.64C67.2671 154.192 66.2991 153.568 65.4671 152.768C64.6511 151.968 64.0111 151.032 63.5471 149.96C63.0831 148.872 62.8511 147.704 62.8511 146.456C62.8511 145.208 63.0751 144.056 63.5231 143C63.9871 141.928 64.6271 140.992 65.4431 140.192C66.2591 139.392 67.2191 138.776 68.3231 138.344C69.4271 137.896 70.6351 137.672 71.9471 137.672C73.2591 137.672 74.4671 137.896 75.5711 138.344C76.6751 138.776 77.6351 139.392 78.4511 140.192C79.2671 140.992 79.8991 141.928 80.3471 143C80.8111 144.072 81.0431 145.232 81.0431 146.48C81.0431 147.728 80.8111 148.888 80.3471 149.96C79.8991 151.032 79.2671 151.976 78.4511 152.792C77.6351 153.592 76.6751 154.216 75.5711 154.664C74.4831 155.096 73.2911 155.312 71.9951 155.312ZM71.9471 151.472C72.9071 151.472 73.7391 151.264 74.4431 150.848C75.1471 150.432 75.6911 149.848 76.0751 149.096C76.4591 148.344 76.6511 147.464 76.6511 146.456C76.6511 145.72 76.5391 145.048 76.3151 144.44C76.1071 143.832 75.7951 143.312 75.3791 142.88C74.9631 142.432 74.4671 142.088 73.8911 141.848C73.3151 141.608 72.6671 141.488 71.9471 141.488C70.9871 141.488 70.1551 141.696 69.4511 142.112C68.7471 142.512 68.2031 143.088 67.8191 143.84C67.4351 144.592 67.2431 145.464 67.2431 146.456C67.2431 147.224 67.3471 147.92 67.5551 148.544C67.7791 149.152 68.0991 149.68 68.5151 150.128C68.9311 150.56 69.4271 150.896 70.0031 151.136C70.5791 151.36 71.2271 151.472 71.9471 151.472ZM83.1917 155V137.984H87.4877V155H83.1917ZM86.5997 155V151.304H94.8077V155H86.5997ZM104.339 155.312C103.027 155.312 101.819 155.088 100.715 154.64C99.6109 154.192 98.6429 153.568 97.8109 152.768C96.9949 151.968 96.3549 151.032 95.8909 149.96C95.4269 148.872 95.1949 147.704 95.1949 146.456C95.1949 145.208 95.4189 144.056 95.8669 143C96.3309 141.928 96.9709 140.992 97.7869 140.192C98.6029 139.392 99.5629 138.776 100.667 138.344C101.771 137.896 102.979 137.672 104.291 137.672C105.603 137.672 106.811 137.896 107.915 138.344C109.019 138.776 109.979 139.392 110.795 140.192C111.611 140.992 112.243 141.928 112.691 143C113.155 144.072 113.387 145.232 113.387 146.48C113.387 147.728 113.155 148.888 112.691 149.96C112.243 151.032 111.611 151.976 110.795 152.792C109.979 153.592 109.019 154.216 107.915 154.664C106.827 155.096 105.635 155.312 104.339 155.312ZM104.291 151.472C105.251 151.472 106.083 151.264 106.787 150.848C107.491 150.432 108.035 149.848 108.419 149.096C108.803 148.344 108.995 147.464 108.995 146.456C108.995 145.72 108.883 145.048 108.659 144.44C108.451 143.832 108.139 143.312 107.723 142.88C107.307 142.432 106.811 142.088 106.235 141.848C105.659 141.608 105.011 141.488 104.291 141.488C103.331 141.488 102.499 141.696 101.795 142.112C101.091 142.512 100.547 143.088 100.163 143.84C99.7789 144.592 99.5869 145.464 99.5869 146.456C99.5869 147.224 99.6909 147.92 99.8989 148.544C100.123 149.152 100.443 149.68 100.859 150.128C101.275 150.56 101.771 150.896 102.347 151.136C102.923 151.36 103.571 151.472 104.291 151.472ZM124.025 155.264C122.729 155.264 121.529 155.048 120.425 154.616C119.337 154.168 118.377 153.544 117.545 152.744C116.729 151.944 116.089 151.016 115.625 149.96C115.177 148.888 114.953 147.728 114.953 146.48C114.953 145.216 115.185 144.056 115.649 143C116.129 141.928 116.793 141 117.641 140.216C118.489 139.416 119.473 138.8 120.593 138.368C121.729 137.92 122.937 137.696 124.217 137.696C125.737 137.696 127.113 137.968 128.345 138.512C129.577 139.04 130.577 139.776 131.345 140.72L128.465 143.6C127.889 142.912 127.257 142.4 126.569 142.064C125.881 141.712 125.081 141.536 124.169 141.536C123.241 141.536 122.409 141.744 121.673 142.16C120.953 142.56 120.377 143.128 119.945 143.864C119.513 144.6 119.297 145.464 119.297 146.456C119.297 147.448 119.497 148.32 119.897 149.072C120.313 149.824 120.873 150.408 121.577 150.824C122.297 151.24 123.121 151.448 124.049 151.448C124.977 151.448 125.761 151.272 126.401 150.92C127.057 150.568 127.553 150.056 127.889 149.384C128.241 148.712 128.417 147.912 128.417 146.984L131.321 148.856L123.569 148.664V145.16H132.737V145.808C132.737 147.84 132.369 149.56 131.633 150.968C130.897 152.376 129.873 153.448 128.561 154.184C127.265 154.904 125.753 155.264 124.025 155.264ZM134.778 155V137.984H139.074V155H134.778ZM135.018 136.856L133.818 134.792L138.018 131.384L140.01 134.648L135.018 136.856ZM140.842 155L147.442 137.984H151.594L158.122 155H153.634L148.714 140.696H150.274L145.234 155H140.842ZM144.85 152.024V148.616H154.234V152.024H144.85Z" fill="#623D22"/>
<path d="M130.497 37.7995C131.668 37.7995 132.616 36.8507 132.616 35.6803C132.616 34.5098 131.668 33.561 130.497 33.561C129.327 33.561 128.378 34.5098 128.378 35.6803C128.378 36.8507 129.327 37.7995 130.497 37.7995Z" fill="#623D22"/>
<path d="M31.9561 85.2633C34.6933 85.2633 36.9122 83.0444 36.9122 80.3072C36.9122 77.57 34.6933 75.3511 31.9561 75.3511C29.2189 75.3511 27 77.57 27 80.3072C27 83.0444 29.2189 85.2633 31.9561 85.2633Z" stroke="#623D22" stroke-width="3.96488" stroke-linecap="round" stroke-linejoin="round"/>
<path d="M122.157 107.069V15.877H52.7398C51.963 15.877 51.1937 16.03 50.476 16.3273C49.7583 16.6245 49.1062 17.0603 48.5569 17.6096C48.0075 18.1589 47.5718 18.811 47.2745 19.5288C46.9772 20.2465 46.8242 21.0157 46.8242 21.7926V107.069" stroke="#623D22" stroke-width="3.96488" stroke-linecap="round" stroke-linejoin="round"/>
<path d="M58.7188 98.0749V15.877V98.0749Z" fill="#E66353"/>
<path d="M58.7188 98.0749V15.877" stroke="#623D22" stroke-width="3.96488" stroke-linecap="round" stroke-linejoin="round"/>
<path d="M54.7541 99.1406H122.157V115H54.7541C52.651 115 50.634 114.165 49.1469 112.678C47.6598 111.19 46.8243 109.173 46.8243 107.07C46.8243 104.967 47.6598 102.95 49.1469 101.463C50.634 99.9761 52.651 99.1406 54.7541 99.1406Z" stroke="#623D22" stroke-width="3.96488" stroke-linecap="round" stroke-linejoin="round"/>
<path d="M80.5261 107.07H47.3618" stroke="#623D22" stroke-width="3.96488" stroke-linecap="round" stroke-linejoin="round"/>
<path d="M84.5623 54.6898C82.2917 50.9038 81.333 46.4746 81.8347 42.0885C82.3365 37.7024 84.2707 33.6041 87.3377 30.4287C84.379 31.2747 81.6546 32.7899 79.3751 34.8572C77.0957 36.9245 75.3224 39.4884 74.1923 42.3507C73.0623 45.213 72.6058 48.2968 72.8583 51.3637C73.1107 54.4306 74.0652 57.3983 75.648 60.0373C77.2309 62.6763 79.3995 64.9158 81.9863 66.5826C84.5731 68.2493 87.5086 69.2987 90.5658 69.6495C93.623 70.0004 96.7199 69.6432 99.617 68.6057C102.514 67.5682 105.134 65.8782 107.273 63.6663C103.027 64.8769 98.5009 64.6535 94.395 63.0306C90.2891 61.4077 86.833 58.4761 84.5623 54.6898Z" stroke="#623D22" stroke-width="3.96488" stroke-linecap="round" stroke-linejoin="round"/>
<path d="M94.6288 30.6479L98.1714 32.4539C98.256 32.4967 98.352 32.5117 98.4456 32.4967C98.5392 32.4818 98.6257 32.4376 98.6928 32.3706L101.504 29.5555C101.571 29.4873 101.659 29.4426 101.753 29.4277C101.848 29.4129 101.945 29.4289 102.03 29.4733C102.115 29.5176 102.183 29.5881 102.225 29.6742C102.267 29.7604 102.281 29.8578 102.263 29.952L101.641 33.8792C101.626 33.9729 101.641 34.0689 101.684 34.1534C101.727 34.2379 101.796 34.3065 101.881 34.3491L105.423 36.1551C105.507 36.1982 105.575 36.2667 105.618 36.3508C105.66 36.4349 105.675 36.5303 105.661 36.6234C105.646 36.7165 105.602 36.8026 105.536 36.8695C105.469 36.9363 105.383 36.9804 105.29 36.9956L101.363 37.6181C101.269 37.6326 101.183 37.6765 101.116 37.7435C101.049 37.8106 101.005 37.8972 100.99 37.9908L100.368 41.918C100.353 42.0117 100.309 42.0983 100.242 42.1654C100.175 42.2325 100.089 42.2766 99.9951 42.2914C99.9014 42.3061 99.8055 42.2908 99.7211 42.2476C99.6367 42.2044 99.5682 42.1355 99.5254 42.0509L97.7214 38.5082C97.6781 38.4241 97.6094 38.3557 97.5251 38.3127C97.4408 38.2696 97.3451 38.2541 97.2516 38.2684L93.3243 38.8909C93.2301 38.9083 93.1327 38.8951 93.0466 38.8531C92.9604 38.8112 92.8899 38.7427 92.8456 38.6577C92.8012 38.5727 92.7852 38.4758 92.8001 38.3811C92.8149 38.2864 92.8597 38.1989 92.9279 38.1316L95.739 35.3205C95.8057 35.2533 95.8497 35.1668 95.8646 35.0732C95.8796 34.9796 95.8647 34.8838 95.8222 34.7991L94.0162 31.2565C93.9682 31.1711 93.9496 31.0723 93.9631 30.9752C93.9766 30.8782 94.0216 30.7883 94.0911 30.7192C94.1606 30.6502 94.2508 30.6058 94.3479 30.5929C94.445 30.58 94.5437 30.5993 94.6288 30.6479Z" fill="#623D22"/>
<path d="M36.9122 5.96533L42.8595 11.9127" stroke="#623D22" stroke-width="3.96488" stroke-linecap="round" stroke-linejoin="round"/>
<path d="M46.8243 2V7.94732" stroke="#623D22" stroke-width="3.96488" stroke-linecap="round" stroke-linejoin="round"/>
<path d="M38.8946 15.877H32.9473" stroke="#623D22" stroke-width="3.96488" stroke-linecap="round" stroke-linejoin="round"/>
<path d="M74.5786 77.3335H102.333" stroke="#623D22" stroke-width="3.96488" stroke-linecap="round" stroke-linejoin="round"/>
<path d="M84.4908 83.2808H96.3854" stroke="#623D22" stroke-width="3.96488" stroke-linecap="round" stroke-linejoin="round"/>
</svg>
