<svg width="108" height="117" viewBox="0 0 108 117" fill="none" xmlns="http://www.w3.org/2000/svg">
<path d="M105.497 37.7993C106.668 37.7993 107.616 36.8504 107.616 35.68C107.616 34.5096 106.668 33.5608 105.497 33.5608C104.327 33.5608 103.378 34.5096 103.378 35.68C103.378 36.8504 104.327 37.7993 105.497 37.7993Z" fill="#623D22"/>
<path d="M6.9561 85.2633C9.69328 85.2633 11.9122 83.0444 11.9122 80.3072C11.9122 77.57 9.69328 75.3511 6.9561 75.3511C4.21892 75.3511 2 77.57 2 80.3072C2 83.0444 4.21892 85.2633 6.9561 85.2633Z" stroke="#623D22" stroke-width="3.96488" stroke-linecap="round" stroke-linejoin="round"/>
<path d="M97.157 107.069V15.877H27.7398C26.963 15.877 26.1937 16.03 25.476 16.3273C24.7583 16.6245 24.1062 17.0603 23.5569 17.6096C23.0075 18.1589 22.5718 18.811 22.2745 19.5288C21.9772 20.2465 21.8242 21.0157 21.8242 21.7926V107.069" stroke="#623D22" stroke-width="3.96488" stroke-linecap="round" stroke-linejoin="round"/>
<path d="M33.7188 98.0749V15.877V98.0749Z" fill="#E66353"/>
<path d="M33.7188 98.0749V15.877" stroke="#623D22" stroke-width="3.96488" stroke-linecap="round" stroke-linejoin="round"/>
<path d="M29.754 99.1406H97.157V115H29.754C27.6509 115 25.6339 114.165 24.1468 112.678C22.6597 111.19 21.8242 109.173 21.8242 107.07C21.8242 104.967 22.6597 102.95 24.1468 101.463C25.6339 99.9761 27.6509 99.1406 29.754 99.1406Z" stroke="#623D22" stroke-width="3.96488" stroke-linecap="round" stroke-linejoin="round"/>
<path d="M55.5261 107.07H22.3618" stroke="#623D22" stroke-width="3.96488" stroke-linecap="round" stroke-linejoin="round"/>
<path d="M59.5622 54.6901C57.2915 50.904 56.3328 46.4749 56.8346 42.0887C57.3364 37.7026 59.2706 33.6044 62.3376 30.429C59.3789 31.2749 56.6544 32.7901 54.375 34.8574C52.0956 36.9247 50.3223 39.4887 49.1922 42.3509C48.0622 45.2132 47.6057 48.2971 47.8581 51.3639C48.1106 54.4308 49.0651 57.3986 50.6479 60.0375C52.2307 62.6765 54.3994 64.916 56.9862 66.5828C59.5729 68.2496 62.5085 69.299 65.5657 69.6498C68.6229 70.0006 71.7198 69.6434 74.6169 68.6059C77.514 67.5684 80.1336 65.8784 82.273 63.6666C78.0273 64.8771 73.5008 64.6537 69.3949 63.0308C65.289 61.408 61.8329 58.4763 59.5622 54.6901Z" stroke="#623D22" stroke-width="3.96488" stroke-linecap="round" stroke-linejoin="round"/>
<path d="M69.629 30.6481L73.1717 32.4541C73.2563 32.4969 73.3522 32.5119 73.4458 32.497C73.5395 32.482 73.626 32.4379 73.693 32.3708L76.5041 29.5558C76.5715 29.4876 76.659 29.4428 76.7537 29.428C76.8484 29.4132 76.9453 29.4291 77.0303 29.4735C77.1152 29.5179 77.1837 29.5883 77.2257 29.6745C77.2677 29.7607 77.2809 29.858 77.2634 29.9523L76.6409 33.8795C76.6258 33.9731 76.6408 34.0692 76.684 34.1537C76.7271 34.2382 76.7961 34.3067 76.8808 34.3493L80.4234 36.1553C80.5073 36.1985 80.5753 36.267 80.618 36.351C80.6606 36.4351 80.6757 36.5305 80.661 36.6236C80.6462 36.7168 80.6025 36.8029 80.536 36.8697C80.4695 36.9365 80.3837 36.9807 80.2906 36.9959L76.3634 37.6184C76.2697 37.6328 76.1831 37.6768 76.1161 37.7438C76.0491 37.8108 76.0052 37.8974 75.9907 37.9911L75.3682 41.9183C75.3535 42.012 75.3096 42.0986 75.2425 42.1657C75.1755 42.2328 75.089 42.2769 74.9953 42.2916C74.9017 42.3064 74.8057 42.2911 74.7213 42.2478C74.6369 42.2046 74.5684 42.1357 74.5257 42.0511L72.7216 38.5085C72.6783 38.4243 72.6096 38.3559 72.5253 38.3129C72.441 38.2699 72.3454 38.2544 72.2518 38.2686L68.3246 38.8911C68.2303 38.9086 68.133 38.8953 68.0468 38.8534C67.9606 38.8114 67.8902 38.7429 67.8458 38.6579C67.8014 38.573 67.7855 38.476 67.8003 38.3813C67.8151 38.2866 67.8599 38.1992 67.9281 38.1318L70.7392 35.3207C70.806 35.2535 70.8499 35.167 70.8649 35.0734C70.8798 34.9799 70.865 34.884 70.8225 34.7993L69.0165 31.2567C68.9685 31.1713 68.9498 31.0725 68.9633 30.9755C68.9769 30.8784 69.0218 30.7885 69.0913 30.7195C69.1608 30.6504 69.251 30.6061 69.3481 30.5932C69.4453 30.5803 69.5439 30.5996 69.629 30.6481Z" fill="#623D22"/>
<path d="M11.9121 5.96509L17.8594 11.9124" stroke="#623D22" stroke-width="3.96488" stroke-linecap="round" stroke-linejoin="round"/>
<path d="M21.8242 2V7.94732" stroke="#623D22" stroke-width="3.96488" stroke-linecap="round" stroke-linejoin="round"/>
<path d="M13.8946 15.8772H7.94727" stroke="#623D22" stroke-width="3.96488" stroke-linecap="round" stroke-linejoin="round"/>
<path d="M49.5786 77.3333H77.3328" stroke="#623D22" stroke-width="3.96488" stroke-linecap="round" stroke-linejoin="round"/>
<path d="M59.4907 83.2805H71.3854" stroke="#623D22" stroke-width="3.96488" stroke-linecap="round" stroke-linejoin="round"/>
</svg>
