<svg width="23" height="11" viewBox="0 0 23 11" fill="none" xmlns="http://www.w3.org/2000/svg">
<path fill-rule="evenodd" clip-rule="evenodd" d="M2.45246 0.799302C2.45246 1.24074 2.09281 1.5986 1.64916 1.5986C1.20551 1.5986 0.845858 1.24074 0.845858 0.799302C0.845858 0.35786 1.20551 0 1.64916 0C2.09281 0 2.45246 0.35786 2.45246 0.799302ZM6.59579 1.5986C7.03944 1.5986 7.39909 1.24074 7.39909 0.799302C7.39909 0.35786 7.03944 0 6.59579 0C6.15214 0 5.79249 0.35786 5.79249 0.799302C5.79249 1.24074 6.15214 1.5986 6.59579 1.5986ZM12.3457 0.799302C12.3457 1.24074 11.9861 1.5986 11.5424 1.5986C11.0988 1.5986 10.7391 1.24074 10.7391 0.799302C10.7391 0.35786 11.0988 0 11.5424 0C11.9861 0 12.3457 0.35786 12.3457 0.799302ZM16.6582 1.5986C17.1018 1.5986 17.4615 1.24074 17.4615 0.799302C17.4615 0.35786 17.1018 0 16.6582 0C16.2145 0 15.8549 0.35786 15.8549 0.799302C15.8549 1.24074 16.2145 1.5986 16.6582 1.5986ZM21.6048 1.5986C22.0484 1.5986 22.4081 1.24074 22.4081 0.799302C22.4081 0.35786 22.0484 0 21.6048 0C21.1611 0 20.8015 0.35786 20.8015 0.799302C20.8015 1.24074 21.1611 1.5986 21.6048 1.5986ZM4.35501 10.0123C4.79866 10.0123 5.15831 9.65445 5.15831 9.21301C5.15831 8.77157 4.79866 8.41371 4.35501 8.41371C3.91136 8.41371 3.55171 8.77157 3.55171 9.21301C3.55171 9.65445 3.91136 10.0123 4.35501 10.0123ZM10.1895 9.21301C10.1895 9.65445 9.82985 10.0123 9.3862 10.0123C8.94255 10.0123 8.5829 9.65445 8.5829 9.21301C8.5829 8.77157 8.94255 8.41371 9.3862 8.41371C9.82985 8.41371 10.1895 8.77157 10.1895 9.21301ZM14.2905 10.0123C14.7342 10.0123 15.0938 9.65445 15.0938 9.21301C15.0938 8.77157 14.7342 8.41371 14.2905 8.41371C13.8469 8.41371 13.4872 8.77157 13.4872 9.21301C13.4872 9.65445 13.8469 10.0123 14.2905 10.0123ZM20.125 9.21301C20.125 9.65445 19.7654 10.0123 19.3217 10.0123C18.8781 10.0123 18.5184 9.65445 18.5184 9.21301C18.5184 8.77157 18.8781 8.41371 19.3217 8.41371C19.7654 8.41371 20.125 8.77157 20.125 9.21301ZM0.571045 4.87994V3.21823C0.585138 2.86766 0.850086 2.17493 1.79713 2.20859C2.74418 2.24224 3.00913 2.85364 3.02322 3.15513V4.7327L0.571045 4.87994ZM10.4854 3.24046V4.26115L7.97536 4.43876L7.99015 3.0371C7.97882 2.76155 7.71709 2.20026 6.76078 2.15952C5.80448 2.11878 5.53017 2.74877 5.51256 3.06886L5.49688 4.55458L3.02339 4.71803L3.01512 6.58854C3.02777 6.94608 3.29221 7.67218 4.2487 7.71627C5.2052 7.76037 5.47647 6.94017 5.49255 6.52457L5.50112 4.58659L7.963 4.47869L7.95414 6.48286C7.967 6.87341 8.23764 7.66648 9.21736 7.71436C10.1971 7.76224 10.4752 6.86623 10.4918 6.41224L10.5012 4.29018L11.7115 4.22789L12.9107 4.18674L12.9012 6.35232C12.9139 6.77152 13.1843 7.6227 14.164 7.67378C15.1437 7.72486 15.4221 6.76301 15.4388 6.2757L15.449 3.9749L16.6582 3.93341L17.8593 3.8922L17.8485 6.31775C17.861 6.78974 18.1309 7.74797 19.1106 7.80494C20.0903 7.86191 20.3692 6.77877 20.3863 6.23009L20.3976 3.65905L21.6894 3.59686L23 3.51273V3.20801C22.9849 2.91015 22.7017 2.30612 21.6894 2.27287C20.677 2.23962 20.3938 2.92401 20.3787 3.27035V3.63065L17.8842 3.84623V3.17736C17.8702 2.87587 17.6052 2.26447 16.6582 2.23082C15.7111 2.19716 15.4462 2.88989 15.4321 3.24046V3.96684L12.9376 4.1571V3.17736C12.9235 2.87587 12.6586 2.26447 11.7115 2.23082C10.7645 2.19716 10.4995 2.88989 10.4854 3.24046Z" fill="url(#paint0_linear_86_377)"/>
<defs>
<linearGradient id="paint0_linear_86_377" x1="24.5" y1="2.48463e-07" x2="0.5" y2="5" gradientUnits="userSpaceOnUse">
<stop stop-color="#957DFF"/>
<stop stop-color="#9EA2FF"/>
<stop offset="1" stop-color="#B2F1FF"/>
</linearGradient>
</defs>
</svg>
