<svg width="26" height="26" viewBox="0 0 26 26" fill="none" xmlns="http://www.w3.org/2000/svg">
<circle cx="13" cy="13" r="13" fill="url(#paint0_linear_99_548)"/>
<path fill-rule="evenodd" clip-rule="evenodd" d="M3.74297 8.36053C3.72128 8.80589 3.34086 9.14926 2.89326 9.12746C2.44567 9.10566 2.10041 8.72695 2.1221 8.28159C2.14379 7.83623 2.52422 7.49286 2.97181 7.51465C3.4194 7.53645 3.76466 7.91516 3.74297 8.36053ZM7.88392 9.37039C8.33151 9.39218 8.71194 9.04881 8.73363 8.60345C8.75532 8.15809 8.41006 7.77938 7.96246 7.75758C7.51487 7.73578 7.13445 8.07915 7.11276 8.52451C7.09107 8.96988 7.43633 9.34859 7.88392 9.37039ZM13.7243 8.84659C13.7026 9.29195 13.3222 9.63532 12.8746 9.61352C12.427 9.59172 12.0817 9.21301 12.1034 8.76765C12.1251 8.32228 12.5055 7.97892 12.9531 8.00071C13.4007 8.02251 13.746 8.40122 13.7243 8.84659ZM18.0357 9.86473C18.4833 9.88653 18.8637 9.54316 18.8854 9.0978C18.9071 8.65243 18.5618 8.27372 18.1142 8.25193C17.6666 8.23013 17.2862 8.5735 17.2645 9.01886C17.2428 9.46422 17.5881 9.84293 18.0357 9.86473ZM23.0263 10.1079C23.4739 10.1297 23.8544 9.7863 23.876 9.34093C23.8977 8.89557 23.5525 8.51686 23.1049 8.49506C22.6573 8.47326 22.2769 8.81663 22.2552 9.262C22.2335 9.70736 22.5787 10.0861 23.0263 10.1079ZM5.20985 17.7488C5.65745 17.7706 6.03787 17.4272 6.05956 16.9819C6.08125 16.5365 5.73599 16.1578 5.2884 16.136C4.84081 16.1142 4.46038 16.4576 4.43869 16.9029C4.417 17.3483 4.76226 17.727 5.20985 17.7488ZM11.1357 17.229C11.114 17.6744 10.7335 18.0178 10.2859 17.996C9.83836 17.9742 9.49309 17.5955 9.51478 17.1501C9.53647 16.7047 9.9169 16.3614 10.3645 16.3832C10.8121 16.405 11.1573 16.7837 11.1357 17.229ZM15.2337 18.237C15.6813 18.2588 16.0617 17.9154 16.0834 17.47C16.1051 17.0247 15.7598 16.646 15.3122 16.6242C14.8646 16.6024 14.4842 16.9457 14.4625 17.3911C14.4408 17.8365 14.7861 18.2152 15.2337 18.237ZM21.1595 17.7172C21.1378 18.1626 20.7574 18.5059 20.3098 18.4841C19.8622 18.4623 19.5169 18.0836 19.5386 17.6383C19.5603 17.1929 19.9407 16.8495 20.3883 16.8713C20.8359 16.8931 21.1812 17.2718 21.1595 17.7172ZM1.64453 12.385L1.72618 10.7085C1.75762 10.3555 2.05896 9.66965 3.01277 9.75013C3.96657 9.83062 4.20383 10.4605 4.20324 10.7653L4.12573 12.3569L1.64453 12.385ZM11.7275 11.2179L11.6773 12.2478L9.13632 12.3036L9.22012 10.8901C9.22223 10.6116 8.98575 10.0324 8.02295 9.94434C7.06015 9.85626 6.75245 10.4784 6.71895 10.8004L6.63013 12.2986L4.1266 12.342L4.02635 14.2287C4.02155 14.5901 4.25266 15.3356 5.21549 15.4271C6.17832 15.5186 6.4923 14.7044 6.52894 14.2859L6.6328 12.3311L9.12199 12.3432L9.01457 14.3648C9.00835 14.7595 9.24243 15.5729 10.2285 15.6693C11.2146 15.7658 11.5392 14.8755 11.5782 14.4183L11.692 12.2778L12.9159 12.2744L14.1278 12.2918L14.0118 14.4761C14.004 14.8996 14.235 15.7717 15.2209 15.8713C16.2068 15.971 16.5349 15.0143 16.5757 14.5235L16.699 12.2029L17.9211 12.2204L19.1349 12.2379L19.0049 14.6843C18.9943 15.1611 19.2196 16.1411 20.2052 16.2467C21.1907 16.3523 21.5254 15.2732 21.5695 14.7205L21.7073 12.1273L23.0135 12.128L24.3399 12.1075L24.3549 11.8001C24.3543 11.4989 24.0983 10.8756 23.0785 10.7923C22.0588 10.709 21.7395 11.3855 21.7072 11.7342L21.6896 12.0976L19.1623 12.1925L19.1952 11.5179C19.1958 11.213 18.9585 10.5832 18.0047 10.5027C17.0509 10.4222 16.7496 11.1081 16.7181 11.4611L16.6824 12.1938L14.1564 12.2632L14.2045 11.2748C14.2051 10.9699 13.9679 10.3401 13.0141 10.2596C12.0602 10.1791 11.7589 10.865 11.7275 11.2179Z" fill="white"/>
<defs>
<linearGradient id="paint0_linear_99_548" x1="-0.858" y1="13" x2="26" y2="12.0033" gradientUnits="userSpaceOnUse">
<stop stop-color="#86F05B"/>
<stop offset="0.725463" stop-color="#3690EF"/>
<stop offset="0.994785" stop-color="#1F82EA"/>
</linearGradient>
</defs>
</svg>
