<svg width="115" height="157" viewBox="0 0 115 157" fill="none" xmlns="http://www.w3.org/2000/svg">
<path d="M4.92 144.112V141.04H8.16C8.864 141.04 9.4 140.872 9.768 140.536C10.152 140.184 10.344 139.712 10.344 139.12C10.344 138.544 10.152 138.08 9.768 137.728C9.4 137.36 8.864 137.176 8.16 137.176H4.92V133.984H8.76C9.912 133.984 10.92 134.2 11.784 134.632C12.664 135.064 13.352 135.656 13.848 136.408C14.344 137.16 14.592 138.04 14.592 139.048C14.592 140.056 14.336 140.944 13.824 141.712C13.328 142.464 12.632 143.056 11.736 143.488C10.84 143.904 9.792 144.112 8.592 144.112H4.92ZM1.512 151V133.984H5.808V151H1.512ZM10.728 151L5.784 143.704L9.648 142.768L15.696 151H10.728ZM17.0979 151V133.984H21.3939V151H17.0979ZM28.5384 151V134.104H32.8344V151H28.5384ZM23.3304 137.68V133.984H38.0424V137.68H23.3304ZM46.9575 151.264C45.5175 151.264 44.2455 150.968 43.1415 150.376C42.0535 149.768 41.2055 148.928 40.5975 147.856C39.9895 146.784 39.6855 145.568 39.6855 144.208V133.984H43.9575V144.52C43.9575 145.128 44.0855 145.656 44.3415 146.104C44.6135 146.536 44.9735 146.872 45.4215 147.112C45.8855 147.336 46.3975 147.448 46.9575 147.448C47.5335 147.448 48.0375 147.336 48.4695 147.112C48.9015 146.872 49.2455 146.536 49.5015 146.104C49.7575 145.672 49.8855 145.152 49.8855 144.544V133.984H54.2055V144.232C54.2055 145.592 53.9015 146.808 53.2935 147.88C52.6855 148.936 51.8375 149.768 50.7495 150.376C49.6775 150.968 48.4135 151.264 46.9575 151.264ZM55.014 151L61.614 133.984H65.766L72.294 151H67.806L62.886 136.696H64.446L59.406 151H55.014ZM59.022 148.024V144.616H68.406V148.024H59.022ZM73.887 151V133.984H78.183V151H73.887ZM77.295 151V147.304H85.503V151H77.295ZM87.5042 151V133.984H91.8002V151H87.5042ZM90.9122 151V147.376H100.128V151H90.9122ZM90.9122 144.088V140.56H99.2642V144.088H90.9122ZM90.9122 137.608V133.984H99.9842V137.608H90.9122ZM107.457 151.264C106.033 151.264 104.793 151.048 103.737 150.616C102.697 150.184 101.745 149.504 100.881 148.576L103.593 145.84C104.185 146.464 104.817 146.944 105.489 147.28C106.161 147.6 106.921 147.76 107.769 147.76C108.489 147.76 109.041 147.64 109.425 147.4C109.825 147.144 110.025 146.8 110.025 146.368C110.025 145.968 109.881 145.64 109.593 145.384C109.305 145.112 108.921 144.88 108.441 144.688C107.977 144.48 107.457 144.288 106.881 144.112C106.321 143.92 105.753 143.696 105.177 143.44C104.617 143.168 104.097 142.84 103.617 142.456C103.153 142.072 102.777 141.592 102.489 141.016C102.201 140.44 102.057 139.728 102.057 138.88C102.057 137.792 102.313 136.864 102.825 136.096C103.353 135.328 104.081 134.736 105.009 134.32C105.937 133.904 107.017 133.696 108.249 133.696C109.481 133.696 110.617 133.904 111.657 134.32C112.697 134.736 113.553 135.312 114.225 136.048L111.489 138.76C110.977 138.248 110.457 137.864 109.929 137.608C109.401 137.352 108.825 137.224 108.201 137.224C107.609 137.224 107.145 137.328 106.809 137.536C106.473 137.744 106.305 138.04 106.305 138.424C106.305 138.808 106.449 139.12 106.737 139.36C107.025 139.6 107.401 139.816 107.865 140.008C108.345 140.184 108.865 140.368 109.425 140.56C110.001 140.752 110.569 140.976 111.129 141.232C111.689 141.488 112.201 141.816 112.665 142.216C113.145 142.616 113.529 143.12 113.817 143.728C114.105 144.336 114.249 145.072 114.249 145.936C114.249 147.632 113.649 148.944 112.449 149.872C111.265 150.8 109.601 151.264 107.457 151.264Z" fill="#623D22"/>
<path d="M80.3451 17.8542C81.4396 17.8542 82.3269 16.967 82.3269 15.8724C82.3269 14.7779 81.4396 13.8906 80.3451 13.8906C79.2506 13.8906 78.3633 14.7779 78.3633 15.8724C78.3633 16.967 79.2506 17.8542 80.3451 17.8542Z" fill="#623D22"/>
<path d="M56.5634 73.3455C57.6579 73.3455 58.5452 72.4582 58.5452 71.3636C58.5452 70.2691 57.6579 69.3818 56.5634 69.3818C55.4689 69.3818 54.5816 70.2691 54.5816 71.3636C54.5816 72.4582 55.4689 73.3455 56.5634 73.3455Z" fill="#623D22"/>
<path d="M99.1724 11.909C101.909 11.909 104.127 9.69083 104.127 6.95452C104.127 4.21822 101.909 2 99.1724 2C96.436 2 94.2178 4.21822 94.2178 6.95452C94.2178 9.69083 96.436 11.909 99.1724 11.909Z" stroke="#623D22" stroke-width="3.96362" stroke-linecap="round" stroke-linejoin="round"/>
<path d="M20.5681 11.2412L13.2869 18.5224" stroke="#623D22" stroke-width="3.96362" stroke-linecap="round" stroke-linejoin="round"/>
<path d="M13.2869 11.2412L20.5681 18.5224" stroke="#623D22" stroke-width="3.96362" stroke-linecap="round" stroke-linejoin="round"/>
<path d="M84.3087 77.3092L94.8737 66.7441C95.5775 66.0405 96.0087 65.1099 96.0907 64.1181C96.1728 63.1263 95.9002 62.1376 95.3216 61.3278C94.9666 60.8313 94.5077 60.4179 93.9768 60.1165C93.446 59.8152 92.8559 59.633 92.2475 59.5826C91.6391 59.5323 91.0271 59.615 90.4539 59.825C89.8807 60.035 89.3601 60.3672 88.9283 60.7987L73.4365 76.2905C71.8567 77.8702 70.6036 79.7456 69.7488 81.8097C68.8939 83.8738 68.454 86.086 68.4542 88.3201V111H86.2905V104.297C86.2931 100.932 87.4079 97.6626 89.4614 94.9968L101.099 79.8696C104.35 75.6377 106.111 70.4498 106.109 65.1131V36.6821C106.109 35.368 105.587 34.1078 104.657 33.1787C103.728 32.2495 102.468 31.7275 101.154 31.7275C99.8401 31.7275 98.5798 32.2495 97.6507 33.1787C96.7215 34.1078 96.1996 35.368 96.1996 36.6821V63.4365" stroke="#623D22" stroke-width="3.96362" stroke-linecap="round" stroke-linejoin="round"/>
<path d="M30.7999 77.3092L20.2349 66.7441C19.5311 66.0405 19.0999 65.1099 19.0179 64.1181C18.9358 63.1263 19.2084 62.1376 19.787 61.3278C20.142 60.8313 20.6009 60.4179 21.1318 60.1165C21.6626 59.8152 22.2527 59.633 22.8611 59.5826C23.4695 59.5323 24.0815 59.615 24.6547 59.825C25.2279 60.035 25.7485 60.3672 26.1803 60.7987L41.6721 76.2905C43.2519 77.8702 44.505 79.7456 45.3598 81.8097C46.2147 83.8738 46.6546 86.086 46.6544 88.3201V111H28.8181V104.297C28.8155 100.932 27.7007 97.6626 25.6472 94.9968L14.01 79.8696C10.7587 75.6377 8.99737 70.4498 9 65.1131V36.6821C9 35.368 9.522 34.1078 10.4511 33.1787C11.3803 32.2495 12.6405 31.7275 13.9545 31.7275C15.2685 31.7275 16.5287 32.2495 17.4579 33.1787C18.3871 34.1078 18.909 35.368 18.909 36.6821V63.4365" stroke="#623D22" stroke-width="3.96362" stroke-linecap="round" stroke-linejoin="round"/>
<path d="M41.6804 20.8471L51.417 21.9074L57.5547 14.2715L63.6923 21.9074L73.429 20.8471L72.3707 30.5857L80.0046 36.7234L72.3707 42.8591L73.429 52.5977L63.6923 51.5394L57.5547 59.1733L51.417 51.5394L41.6804 52.5977L42.7387 42.8591L35.1047 36.7234L42.7387 30.5857L41.6804 20.8471Z" stroke="#623D22" stroke-width="3.96362" stroke-linecap="round" stroke-linejoin="round"/>
<path d="M49.6069 28.7747L54.4822 29.3058L57.554 25.4829L60.6258 29.3058L65.501 28.7747L64.9719 33.6519L68.7948 36.7237L64.9719 39.7955L65.501 44.6708L60.6258 44.1416L57.554 47.9626L54.4822 44.1416L49.6069 44.6708L50.1361 39.7955L46.3132 36.7237L50.1361 33.6519L49.6069 28.7747Z" stroke="#623D22" stroke-width="3.96362" stroke-linecap="round" stroke-linejoin="round"/>
</svg>
