<svg width="102" height="113" viewBox="0 0 102 113" fill="none" xmlns="http://www.w3.org/2000/svg">
<path d="M73.3451 17.8545C74.4396 17.8545 75.3269 16.9672 75.3269 15.8727C75.3269 14.7782 74.4396 13.8909 73.3451 13.8909C72.2506 13.8909 71.3633 14.7782 71.3633 15.8727C71.3633 16.9672 72.2506 17.8545 73.3451 17.8545Z" fill="#623D22"/>
<path d="M49.5634 73.3455C50.6579 73.3455 51.5452 72.4582 51.5452 71.3636C51.5452 70.2691 50.6579 69.3818 49.5634 69.3818C48.4688 69.3818 47.5815 70.2691 47.5815 71.3636C47.5815 72.4582 48.4688 73.3455 49.5634 73.3455Z" fill="#623D22"/>
<path d="M92.1723 11.909C94.9086 11.909 97.1268 9.69083 97.1268 6.95452C97.1268 4.21822 94.9086 2 92.1723 2C89.436 2 87.2178 4.21822 87.2178 6.95452C87.2178 9.69083 89.436 11.909 92.1723 11.909Z" stroke="#623D22" stroke-width="3.96362" stroke-linecap="round" stroke-linejoin="round"/>
<path d="M13.568 11.2415L6.28687 18.5226" stroke="#623D22" stroke-width="3.96362" stroke-linecap="round" stroke-linejoin="round"/>
<path d="M6.28687 11.2415L13.568 18.5226" stroke="#623D22" stroke-width="3.96362" stroke-linecap="round" stroke-linejoin="round"/>
<path d="M77.3086 77.3092L87.8736 66.7441C88.5774 66.0405 89.0086 65.1099 89.0906 64.1181C89.1726 63.1263 88.9001 62.1376 88.3215 61.3278C87.9665 60.8313 87.5076 60.4179 86.9767 60.1165C86.4458 59.8152 85.8557 59.633 85.2474 59.5826C84.639 59.5323 84.027 59.615 83.4538 59.825C82.8806 60.035 82.36 60.3672 81.9282 60.7987L66.4364 76.2905C64.8566 77.8702 63.6035 79.7456 62.7486 81.8097C61.8938 83.8738 61.4539 86.086 61.4541 88.3201V111H79.2904V104.297C79.293 100.932 80.4078 97.6626 82.4613 94.9968L94.0985 79.8696C97.3498 75.6377 99.1111 70.4498 99.1085 65.1131V36.6821C99.1085 35.368 98.5865 34.1078 97.6573 33.1787C96.7282 32.2495 95.468 31.7275 94.154 31.7275C92.8399 31.7275 91.5797 32.2495 90.6506 33.1787C89.7214 34.1078 89.1994 35.368 89.1994 36.6821V63.4365" stroke="#623D22" stroke-width="3.96362" stroke-linecap="round" stroke-linejoin="round"/>
<path d="M23.7999 77.3092L13.2349 66.7441C12.5311 66.0405 12.0999 65.1099 12.0179 64.1181C11.9358 63.1263 12.2084 62.1376 12.787 61.3278C13.142 60.8313 13.6009 60.4179 14.1318 60.1165C14.6626 59.8152 15.2527 59.633 15.8611 59.5826C16.4695 59.5323 17.0815 59.615 17.6547 59.825C18.2279 60.035 18.7485 60.3672 19.1803 60.7987L34.6721 76.2905C36.2519 77.8702 37.505 79.7456 38.3598 81.8097C39.2147 83.8738 39.6546 86.086 39.6544 88.3201V111H21.8181V104.297C21.8155 100.932 20.7007 97.6626 18.6472 94.9968L7.01002 79.8696C3.75872 75.6377 1.99737 70.4498 2 65.1131V36.6821C2 35.368 2.522 34.1078 3.45115 33.1787C4.3803 32.2495 5.6405 31.7275 6.95453 31.7275C8.26855 31.7275 9.52875 32.2495 10.4579 33.1787C11.3871 34.1078 11.909 35.368 11.909 36.6821V63.4365" stroke="#623D22" stroke-width="3.96362" stroke-linecap="round" stroke-linejoin="round"/>
<path d="M34.6801 20.8469L44.4168 21.9072L50.5544 14.2712L56.6921 21.9072L66.4287 20.8469L65.3704 30.5855L73.0044 36.7232L65.3704 42.8588L66.4287 52.5975L56.6921 51.5392L50.5544 59.1731L44.4168 51.5392L34.6801 52.5975L35.7384 42.8588L28.1045 36.7232L35.7384 30.5855L34.6801 20.8469Z" stroke="#623D22" stroke-width="3.96362" stroke-linecap="round" stroke-linejoin="round"/>
<path d="M42.6068 28.7747L47.482 29.3058L50.5538 25.4829L53.6256 29.3058L58.5009 28.7747L57.9717 33.6519L61.7946 36.7237L57.9717 39.7955L58.5009 44.6708L53.6256 44.1416L50.5538 47.9626L47.482 44.1416L42.6068 44.6708L43.1359 39.7955L39.313 36.7237L43.1359 33.6519L42.6068 28.7747Z" stroke="#623D22" stroke-width="3.96362" stroke-linecap="round" stroke-linejoin="round"/>
</svg>
