<svg width="24" height="25" viewBox="0 0 24 25" fill="none" xmlns="http://www.w3.org/2000/svg">
<g style="mix-blend-mode:multiply">
<path fill-rule="evenodd" clip-rule="evenodd" d="M2.60564 4.33584C3.67788 4.33584 4.5471 3.47803 4.5471 2.41987C4.5471 1.36171 3.67788 0.503906 2.60564 0.503906C1.5334 0.503906 0.664184 1.36171 0.664184 2.41987C0.664184 3.47803 1.5334 4.33584 2.60564 4.33584ZM14.5609 4.33584C15.6332 4.33584 16.5024 3.47803 16.5024 2.41987C16.5024 1.36171 15.6332 0.503906 14.5609 0.503906C13.4887 0.503906 12.6195 1.36171 12.6195 2.41987C12.6195 3.47803 13.4887 4.33584 14.5609 4.33584ZM11.0867 22.5879C11.0867 23.6461 10.2175 24.5039 9.14529 24.5039C8.07305 24.5039 7.20383 23.6461 7.20383 22.5879C7.20383 21.5298 8.07305 20.672 9.14529 20.672C10.2175 20.672 11.0867 21.5298 11.0867 22.5879ZM21.3049 24.5039C22.3772 24.5039 23.2464 23.6461 23.2464 22.5879C23.2464 21.5298 22.3772 20.672 21.3049 20.672C20.2327 20.672 19.3635 21.5298 19.3635 22.5879C19.3635 23.6461 20.2327 24.5039 21.3049 24.5039ZM0 8.21817V12.2014L5.92655 11.8484V8.06692C5.89249 7.34423 5.25215 5.87868 2.96328 5.79801C0.674401 5.71733 0.0340607 7.37784 0 8.21817ZM11.9153 11.4982L11.8946 16.1436C11.8557 17.1398 11.2001 19.1059 8.88837 19.0002C6.57665 18.8945 5.93755 17.154 5.90696 16.297L5.92695 11.8132L11.905 11.4214L11.9429 7.86011C11.9855 7.09284 12.6484 5.58272 14.9597 5.68037C17.2709 5.77802 17.9035 7.12346 17.9309 7.78397L17.8952 11.1438L24 10.7154L23.977 15.8744C23.9369 16.9626 23.2647 19.1104 20.8969 18.9956C18.529 18.8808 17.8749 16.9798 17.8439 16.0436L17.8653 11.2395L11.9153 11.4982Z" fill="url(#paint0_linear_84_372)"/>
</g>
<defs>
<linearGradient id="paint0_linear_84_372" x1="22.1182" y1="-9.6104" x2="1.37997" y2="-8.60391" gradientUnits="userSpaceOnUse">
<stop stop-color="#D49CFF"/>
<stop offset="0.243106" stop-color="#C8BBFF"/>
<stop offset="1" stop-color="#B2F1FF"/>
</linearGradient>
</defs>
</svg>
