<svg width="93" height="46" viewBox="0 0 93 46" fill="none" xmlns="http://www.w3.org/2000/svg">
<path fill-rule="evenodd" clip-rule="evenodd" d="M7.80113 3.67227C7.80113 5.70041 6.30987 7.34454 4.47031 7.34454C2.63075 7.34454 1.13949 5.70041 1.13949 3.67227C1.13949 1.64413 2.63075 0 4.47031 0C6.30987 0 7.80113 1.64413 7.80113 3.67227ZM24.9811 7.34454C26.8207 7.34454 28.312 5.70041 28.312 3.67227C28.312 1.64413 26.8207 0 24.9811 0C23.1416 0 21.6503 1.64413 21.6503 3.67227C21.6503 5.70041 23.1416 7.34454 24.9811 7.34454ZM48.8228 3.67227C48.8228 5.70041 47.3315 7.34454 45.492 7.34454C43.6524 7.34454 42.1612 5.70041 42.1612 3.67227C42.1612 1.64413 43.6524 0 45.492 0C47.3315 0 48.8228 1.64413 48.8228 3.67227ZM66.704 7.34454C68.5436 7.34454 70.0349 5.70041 70.0349 3.67227C70.0349 1.64413 68.5436 0 66.704 0C64.8645 0 63.3732 1.64413 63.3732 3.67227C63.3732 5.70041 64.8645 7.34454 66.704 7.34454ZM87.2149 7.34454C89.0544 7.34454 90.5457 5.70041 90.5457 3.67227C90.5457 1.64413 89.0544 0 87.2149 0C85.3753 0 83.8841 1.64413 83.8841 3.67227C83.8841 5.70041 85.3753 7.34454 87.2149 7.34454ZM15.6899 46C17.5295 46 19.0207 44.3559 19.0207 42.3277C19.0207 40.2996 17.5295 38.6555 15.6899 38.6555C13.8504 38.6555 12.3591 40.2996 12.3591 42.3277C12.3591 44.3559 13.8504 46 15.6899 46ZM39.8822 42.3277C39.8822 44.3559 38.3909 46 36.5514 46C34.7118 46 33.2205 44.3559 33.2205 42.3277C33.2205 40.2996 34.7118 38.6555 36.5514 38.6555C38.3909 38.6555 39.8822 40.2996 39.8822 42.3277ZM56.8869 46C58.7265 46 60.2177 44.3559 60.2177 42.3277C60.2177 40.2996 58.7265 38.6555 56.8869 38.6555C55.0473 38.6555 53.5561 40.2996 53.5561 42.3277C53.5561 44.3559 55.0473 46 56.8869 46ZM81.0792 42.3277C81.0792 44.3559 79.5879 46 77.7484 46C75.9088 46 74.4175 44.3559 74.4175 42.3277C74.4175 40.2996 75.9088 38.6555 77.7484 38.6555C79.5879 38.6555 81.0792 40.2996 81.0792 42.3277ZM0 22.4201V14.7857C0.0584354 13.175 1.15702 9.9924 5.08388 10.147C9.01075 10.3016 10.1093 13.1106 10.1678 14.4958V21.7437L0 22.4201ZM41.1093 14.8878V19.5772L30.7015 20.3932L30.7628 13.9534C30.7158 12.6875 29.6305 10.1087 25.6653 9.92153C21.7 9.73437 20.5627 12.6288 20.4896 14.0994L20.4246 20.9253L10.1684 21.6762L10.1342 30.27C10.1866 31.9126 11.2831 35.2486 15.2491 35.4512C19.2152 35.6537 20.34 31.8855 20.4066 29.9761L20.4422 21.0723L30.6502 20.5766L30.6135 29.7845C30.6668 31.5788 31.789 35.2224 35.8513 35.4424C39.9137 35.6624 41.0669 31.5458 41.1356 29.46L41.1745 19.7106L46.1932 19.4244L51.1657 19.2353L51.126 29.1847C51.1787 31.1107 52.2999 35.0213 56.3622 35.256C60.4245 35.4906 61.5788 31.0716 61.6482 28.8327L61.6904 18.262L66.704 18.0714L71.6843 17.8821L71.6398 29.0259C71.6917 31.1944 72.8108 35.5968 76.873 35.8585C80.9352 36.1203 82.0918 31.144 82.1623 28.6231L82.2095 16.8109L87.5655 16.5252L93 16.1386V14.7387C92.9375 13.3702 91.7632 10.5951 87.5655 10.4423C83.3678 10.2896 82.1935 13.4338 82.131 15.0251V16.6804L71.7879 17.6709V14.5979C71.7295 13.2127 70.6309 10.4038 66.704 10.2491C62.7772 10.0945 61.6786 13.2771 61.6202 14.8878V18.225L51.2771 19.0991V14.5979C51.2187 13.2127 50.1201 10.4038 46.1932 10.2491C42.2664 10.0945 41.1678 13.2771 41.1093 14.8878Z" fill="url(#paint0_linear_76_479)"/>
<defs>
<linearGradient id="paint0_linear_76_479" x1="149.175" y1="20.025" x2="11.4814" y2="29.6261" gradientUnits="userSpaceOnUse">
<stop offset="0.048731" stop-color="#C8BBFF"/>
<stop offset="1" stop-color="#B2F1FF"/>
</linearGradient>
</defs>
</svg>
